<mxfile host="app.diagrams.net">
  <diagram name="ParkingLotManagement">
    <mxGraphModel dx="1097" dy="763" grid="1" gridSize="10" guides="1" tooltips="1" connect="1" arrows="1" fold="1" page="1" pageScale="1" pageWidth="850" pageHeight="1100" math="0" shadow="0">
      <root>
        <mxCell id="0" />
        <mxCell id="1" parent="0" />
        
        <!-- ParkingLot Class -->
        <mxCell id="2" value="ParkingLot" style="swimlane;whiteSpace=wrap;html=1;" vertex="1" parent="1">
          <mxGeometry x="40" y="40" width="160" height="120" as="geometry" />
        </mxCell>
        <mxCell id="3" value="- spots: List&lt;ParkingSpot&gt;&lt;br&gt;- reservations: List&lt;Reservation&gt;&lt;br&gt;- revenue: float" style="text;html=1;align=left;verticalAlign=middle;whiteSpace=wrap;rounded=0;" vertex="1" parent="2">
          <mxGeometry x="0" y="30" width="160" height="90" as="geometry" />
        </mxCell>
        
        <!-- ParkingSpot Class -->
        <mxCell id="4" value="ParkingSpot" style="swimlane;whiteSpace=wrap;html=1;" vertex="1" parent="1">
          <mxGeometry x="240" y="40" width="160" height="120" as="geometry" />
        </mxCell>
        <mxCell id="5" value="- spotNumber: int&lt;br&gt;- sizeLimit: String&lt;br&gt;- isAvailable: boolean&lt;br&gt;- hourlyRate: float" style="text;html=1;align=left;verticalAlign=middle;whiteSpace=wrap;rounded=0;" vertex="1" parent="4">
          <mxGeometry x="0" y="30" width="160" height="90" as="geometry" />
        </mxCell>
        
        <!-- Vehicle Class -->
        <mxCell id="6" value="Vehicle" style="swimlane;whiteSpace=wrap;html=1;" vertex="1" parent="1">
          <mxGeometry x="440" y="40" width="160" height="90" as="geometry" />
        </mxCell>
        <mxCell id="7" value="- size: String&lt;br&gt;- licensePlate: String" style="text;html=1;align=left;verticalAlign=middle;whiteSpace=wrap;rounded=0;" vertex="1" parent="6">
          <mxGeometry x="0" y="30" width="160" height="60" as="geometry" />
        </mxCell>
        
        <!-- Reservation Class -->
        <mxCell id="8" value="Reservation" style="swimlane;whiteSpace=wrap;html=1;" vertex="1" parent="1">
          <mxGeometry x="40" y="200" width="160" height="120" as="geometry" />
        </mxCell>
        <mxCell id="9" value="- startTime: datetime&lt;br&gt;- endTime: datetime&lt;br&gt;- totalCost: float" style="text;html=1;align=left;verticalAlign=middle;whiteSpace=wrap;rounded=0;" vertex="1" parent="8">
          <mxGeometry x="0" y="30" width="160" height="90" as="geometry" />
        </mxCell>
        
        <!-- Customer Class -->
        <mxCell id="10" value="Customer" style="swimlane;whiteSpace=wrap;html=1;" vertex="1" parent="1">
          <mxGeometry x="240" y="200" width="160" height="90" as="geometry" />
        </mxCell>
        <mxCell id="11" value="- name: String&lt;br&gt;- contactInfo: String" style="text;html=1;align=left;verticalAlign=middle;whiteSpace=wrap;rounded=0;" vertex="1" parent="10">
          <mxGeometry x="0" y="30" width="160" height="60" as="geometry" />
        </mxCell>
        
        <!-- Relationships -->
        <mxCell id="12" style="edgeStyle=orthogonalEdgeStyle;rounded=0;orthogonalLoop=1;jettySize=auto;html=1;" edge="1" parent="1" source="2" target="4">
          <mxGeometry relative="1" as="geometry" />
        </mxCell>
        <mxCell id="13" style="edgeStyle=orthogonalEdgeStyle;rounded=0;orthogonalLoop=1;jettySize=auto;html=1;" edge="1" parent="1" source="2" target="8">
          <mxGeometry relative="1" as="geometry" />
        </mxCell>
        <mxCell id="14" style="edgeStyle=orthogonalEdgeStyle;rounded=0;orthogonalLoop=1;jettySize=auto;html=1;" edge="1" parent="1" source="8" target="4">
          <mxGeometry relative="1" as="geometry" />
        </mxCell>
        <mxCell id="15" style="edgeStyle=orthogonalEdgeStyle;rounded=0;orthogonalLoop=1;jettySize=auto;html=1;" edge="1" parent="1" source="8" target="6">
          <mxGeometry relative="1" as="geometry" />
        </mxCell>
        <mxCell id="16" style="edgeStyle=orthogonalEdgeStyle;rounded=0;orthogonalLoop=1;jettySize=auto;html=1;" edge="1" parent="1" source="8" target="10">
          <mxGeometry relative="1" as="geometry" />
        </mxCell>
      </root>
    </mxGraphModel>
  </diagram>
</mxfile>
